<mxfile host="Electron" agent="Mozilla/5.0 (X11; Linux x86_64) AppleWebKit/537.36 (KHTML, like Gecko) draw.io/24.7.17 Chrome/128.0.6613.36 Electron/32.0.1 Safari/537.36" version="24.7.17">
  <diagram name="Page-1" id="4bWUVHmeUfxFUn_PGWX7">
    <mxGraphModel dx="1130" dy="1820" grid="1" gridSize="10" guides="1" tooltips="1" connect="1" arrows="1" fold="1" page="1" pageScale="1" pageWidth="850" pageHeight="1100" math="0" shadow="0">
      <root>
        <mxCell id="0" />
        <mxCell id="1" parent="0" />
        <mxCell id="DKTFZLi-hFE9OtAComtL-8" value="" style="endArrow=none;html=1;rounded=0;" parent="1" target="DKTFZLi-hFE9OtAComtL-9" edge="1" source="oYFzekrpUEkNInYLmRTW-20">
          <mxGeometry width="50" height="50" relative="1" as="geometry">
            <mxPoint x="742" y="440" as="sourcePoint" />
            <mxPoint x="740" y="120" as="targetPoint" />
          </mxGeometry>
        </mxCell>
        <mxCell id="DKTFZLi-hFE9OtAComtL-3" value="" style="endArrow=none;html=1;rounded=0;" parent="1" source="oYFzekrpUEkNInYLmRTW-18" edge="1">
          <mxGeometry width="50" height="50" relative="1" as="geometry">
            <mxPoint x="200" y="440" as="sourcePoint" />
            <mxPoint x="200" y="10" as="targetPoint" />
          </mxGeometry>
        </mxCell>
        <mxCell id="DKTFZLi-hFE9OtAComtL-6" value="" style="endArrow=none;html=1;rounded=0;entryX=0.5;entryY=1;entryDx=0;entryDy=0;" parent="1" source="oYFzekrpUEkNInYLmRTW-5" target="DKTFZLi-hFE9OtAComtL-7" edge="1">
          <mxGeometry width="50" height="50" relative="1" as="geometry">
            <mxPoint x="470" y="440" as="sourcePoint" />
            <mxPoint x="470" y="120" as="targetPoint" />
          </mxGeometry>
        </mxCell>
        <mxCell id="DKTFZLi-hFE9OtAComtL-7" value="App" style="text;html=1;align=center;verticalAlign=middle;whiteSpace=wrap;rounded=0;" parent="1" vertex="1">
          <mxGeometry x="440" y="-20" width="60" height="30" as="geometry" />
        </mxCell>
        <mxCell id="DKTFZLi-hFE9OtAComtL-9" value="Relational DB" style="text;html=1;align=center;verticalAlign=middle;whiteSpace=wrap;rounded=0;" parent="1" vertex="1">
          <mxGeometry x="700" y="-20" width="80" height="30" as="geometry" />
        </mxCell>
        <mxCell id="DKTFZLi-hFE9OtAComtL-10" value="User" style="shape=umlActor;verticalLabelPosition=bottom;verticalAlign=top;html=1;outlineConnect=0;" parent="1" vertex="1">
          <mxGeometry x="185" y="-80" width="30" height="60" as="geometry" />
        </mxCell>
        <mxCell id="DKTFZLi-hFE9OtAComtL-12" value="" style="image;aspect=fixed;perimeter=ellipsePerimeter;html=1;align=center;shadow=0;dashed=0;spacingTop=3;image=img/lib/active_directory/web_server.svg;" parent="1" vertex="1">
          <mxGeometry x="450" y="-70" width="40" height="50" as="geometry" />
        </mxCell>
        <mxCell id="DKTFZLi-hFE9OtAComtL-13" value="" style="strokeWidth=2;html=1;shape=mxgraph.flowchart.database;whiteSpace=wrap;" parent="1" vertex="1">
          <mxGeometry x="720" y="-70" width="40" height="50" as="geometry" />
        </mxCell>
        <mxCell id="oYFzekrpUEkNInYLmRTW-1" value="Insere o email e senha" style="html=1;verticalAlign=bottom;endArrow=block;curved=0;rounded=0;" edge="1" parent="1">
          <mxGeometry width="80" relative="1" as="geometry">
            <mxPoint x="204" y="40" as="sourcePoint" />
            <mxPoint x="464" y="40" as="targetPoint" />
          </mxGeometry>
        </mxCell>
        <mxCell id="oYFzekrpUEkNInYLmRTW-2" value="Verifica se o usuário existe" style="html=1;verticalAlign=bottom;endArrow=block;curved=0;rounded=0;" edge="1" parent="1">
          <mxGeometry width="80" relative="1" as="geometry">
            <mxPoint x="474" y="70" as="sourcePoint" />
            <mxPoint x="734" y="70" as="targetPoint" />
          </mxGeometry>
        </mxCell>
        <mxCell id="oYFzekrpUEkNInYLmRTW-3" value="Usuário existe" style="html=1;verticalAlign=bottom;endArrow=open;dashed=1;endSize=8;curved=0;rounded=0;" edge="1" parent="1">
          <mxGeometry relative="1" as="geometry">
            <mxPoint x="730" y="110" as="sourcePoint" />
            <mxPoint x="480" y="110" as="targetPoint" />
          </mxGeometry>
        </mxCell>
        <mxCell id="oYFzekrpUEkNInYLmRTW-6" value="" style="endArrow=none;html=1;rounded=0;entryX=0.5;entryY=1;entryDx=0;entryDy=0;" edge="1" parent="1" target="oYFzekrpUEkNInYLmRTW-5">
          <mxGeometry width="50" height="50" relative="1" as="geometry">
            <mxPoint x="470" y="440" as="sourcePoint" />
            <mxPoint x="470" y="10" as="targetPoint" />
          </mxGeometry>
        </mxCell>
        <mxCell id="oYFzekrpUEkNInYLmRTW-5" value="" style="rounded=0;whiteSpace=wrap;html=1;" vertex="1" parent="1">
          <mxGeometry x="465" y="20" width="10" height="310" as="geometry" />
        </mxCell>
        <mxCell id="oYFzekrpUEkNInYLmRTW-7" value="" style="rounded=0;whiteSpace=wrap;html=1;" vertex="1" parent="1">
          <mxGeometry x="735" y="60" width="10" height="60" as="geometry" />
        </mxCell>
        <mxCell id="oYFzekrpUEkNInYLmRTW-8" value="" style="endArrow=none;html=1;rounded=0;" edge="1" parent="1" target="oYFzekrpUEkNInYLmRTW-9" source="oYFzekrpUEkNInYLmRTW-11">
          <mxGeometry width="50" height="50" relative="1" as="geometry">
            <mxPoint x="1017" y="440" as="sourcePoint" />
            <mxPoint x="1015" y="120" as="targetPoint" />
          </mxGeometry>
        </mxCell>
        <mxCell id="oYFzekrpUEkNInYLmRTW-9" value="Redis DB" style="text;html=1;align=center;verticalAlign=middle;whiteSpace=wrap;rounded=0;" vertex="1" parent="1">
          <mxGeometry x="985" y="-20" width="60" height="30" as="geometry" />
        </mxCell>
        <mxCell id="oYFzekrpUEkNInYLmRTW-10" value="" style="strokeWidth=2;html=1;shape=mxgraph.flowchart.database;whiteSpace=wrap;" vertex="1" parent="1">
          <mxGeometry x="995" y="-70" width="40" height="50" as="geometry" />
        </mxCell>
        <mxCell id="oYFzekrpUEkNInYLmRTW-14" value="" style="endArrow=none;html=1;rounded=0;" edge="1" parent="1" target="oYFzekrpUEkNInYLmRTW-11">
          <mxGeometry width="50" height="50" relative="1" as="geometry">
            <mxPoint x="1017" y="440" as="sourcePoint" />
            <mxPoint x="1015" y="10" as="targetPoint" />
          </mxGeometry>
        </mxCell>
        <mxCell id="oYFzekrpUEkNInYLmRTW-11" value="" style="rounded=0;whiteSpace=wrap;html=1;" vertex="1" parent="1">
          <mxGeometry x="1010" y="140" width="10" height="50" as="geometry" />
        </mxCell>
        <mxCell id="oYFzekrpUEkNInYLmRTW-17" value="Retorna o cookie e o redireciona para a&lt;div&gt;página &quot;home&quot; com todas as tarefas&lt;/div&gt;" style="html=1;verticalAlign=bottom;endArrow=open;dashed=1;endSize=8;curved=0;rounded=0;" edge="1" parent="1">
          <mxGeometry relative="1" as="geometry">
            <mxPoint x="465" y="320" as="sourcePoint" />
            <mxPoint x="210" y="320" as="targetPoint" />
          </mxGeometry>
        </mxCell>
        <mxCell id="oYFzekrpUEkNInYLmRTW-19" value="" style="endArrow=none;html=1;rounded=0;" edge="1" parent="1" target="oYFzekrpUEkNInYLmRTW-18">
          <mxGeometry width="50" height="50" relative="1" as="geometry">
            <mxPoint x="200" y="440" as="sourcePoint" />
            <mxPoint x="200" y="10" as="targetPoint" />
          </mxGeometry>
        </mxCell>
        <mxCell id="oYFzekrpUEkNInYLmRTW-20" value="" style="whiteSpace=wrap;html=1;aspect=fixed;strokeColor=none;fillColor=none;" vertex="1" parent="1">
          <mxGeometry x="710" y="130" width="60" height="60" as="geometry" />
        </mxCell>
        <mxCell id="oYFzekrpUEkNInYLmRTW-18" value="" style="rounded=0;whiteSpace=wrap;html=1;" vertex="1" parent="1">
          <mxGeometry x="195" y="20" width="10" height="310" as="geometry" />
        </mxCell>
        <mxCell id="oYFzekrpUEkNInYLmRTW-21" value="" style="endArrow=none;html=1;rounded=0;" edge="1" parent="1" source="oYFzekrpUEkNInYLmRTW-23" target="oYFzekrpUEkNInYLmRTW-20">
          <mxGeometry width="50" height="50" relative="1" as="geometry">
            <mxPoint x="742" y="440" as="sourcePoint" />
            <mxPoint x="740" y="10" as="targetPoint" />
          </mxGeometry>
        </mxCell>
        <mxCell id="oYFzekrpUEkNInYLmRTW-4" value="Gera um cookie com TTL para identificar o usuário" style="html=1;verticalAlign=bottom;endArrow=block;curved=0;rounded=0;" edge="1" parent="1">
          <mxGeometry width="80" relative="1" as="geometry">
            <mxPoint x="475" y="150" as="sourcePoint" />
            <mxPoint x="1010" y="150" as="targetPoint" />
            <Array as="points">
              <mxPoint x="545" y="150" />
            </Array>
          </mxGeometry>
        </mxCell>
        <mxCell id="oYFzekrpUEkNInYLmRTW-15" value="Registra o cookie com a chave &quot;session:&amp;lt;user&amp;gt;&quot; e valor &quot;&amp;lt;uuid&amp;gt;&quot;" style="html=1;verticalAlign=bottom;endArrow=open;dashed=1;endSize=8;curved=0;rounded=0;strokeWidth=1;jumpSize=6;shadow=0;" edge="1" parent="1">
          <mxGeometry relative="1" as="geometry">
            <mxPoint x="1007" y="180" as="sourcePoint" />
            <mxPoint x="477" y="180" as="targetPoint" />
          </mxGeometry>
        </mxCell>
        <mxCell id="oYFzekrpUEkNInYLmRTW-22" value="Busca todas as tarefas do usuário" style="html=1;verticalAlign=bottom;endArrow=block;curved=0;rounded=0;" edge="1" parent="1">
          <mxGeometry width="80" relative="1" as="geometry">
            <mxPoint x="475" y="220" as="sourcePoint" />
            <mxPoint x="730" y="220" as="targetPoint" />
          </mxGeometry>
        </mxCell>
        <mxCell id="oYFzekrpUEkNInYLmRTW-24" value="" style="endArrow=none;html=1;rounded=0;" edge="1" parent="1" target="oYFzekrpUEkNInYLmRTW-23">
          <mxGeometry width="50" height="50" relative="1" as="geometry">
            <mxPoint x="742" y="440" as="sourcePoint" />
            <mxPoint x="740" y="190" as="targetPoint" />
          </mxGeometry>
        </mxCell>
        <mxCell id="oYFzekrpUEkNInYLmRTW-23" value="" style="rounded=0;whiteSpace=wrap;html=1;" vertex="1" parent="1">
          <mxGeometry x="735" y="200" width="10" height="70" as="geometry" />
        </mxCell>
        <mxCell id="oYFzekrpUEkNInYLmRTW-25" value="Retorna a lista de tarefas" style="html=1;verticalAlign=bottom;endArrow=open;dashed=1;endSize=8;curved=0;rounded=0;" edge="1" parent="1">
          <mxGeometry x="0.0013" relative="1" as="geometry">
            <mxPoint x="735" y="260" as="sourcePoint" />
            <mxPoint x="480" y="260" as="targetPoint" />
            <mxPoint as="offset" />
          </mxGeometry>
        </mxCell>
      </root>
    </mxGraphModel>
  </diagram>
</mxfile>
